<?xml version="1.0" encoding="UTF-8"?>
<svg width="800" height="600" viewBox="0 0 800 600" fill="none" xmlns="http://www.w3.org/2000/svg">
  <!-- Фон приложения -->
  <rect width="800" height="600" rx="20" fill="#0A0D20"/>
  
  <!-- Космические эффекты -->
  <circle cx="400" cy="300" r="300" fill="url(#cosmicBack)" opacity="0.15"/>
  <circle cx="200" cy="150" r="150" fill="url(#blueGlow)" opacity="0.1"/>
  <circle cx="600" cy="450" r="120" fill="url(#purpleGlow)" opacity="0.12"/>
  
  <!-- Звезды -->
  <circle cx="100" cy="100" r="1" fill="white" opacity="0.8"/>
  <circle cx="250" cy="200" r="1" fill="white" opacity="0.8"/>
  <circle cx="350" cy="120" r="1" fill="white" opacity="0.8"/>
  <circle cx="500" cy="300" r="1" fill="white" opacity="0.8"/>
  <circle cx="620" cy="220" r="1" fill="white" opacity="0.8"/>
  <circle cx="700" cy="400" r="1" fill="white" opacity="0.8"/>
  <circle cx="400" cy="500" r="1" fill="white" opacity="0.8"/>
  <circle cx="150" cy="450" r="1" fill="white" opacity="0.8"/>
  
  <!-- Сайдбар -->
  <rect x="0" y="0" width="200" height="600" fill="#070A17"/>
  
  <!-- Логотип -->
  <circle cx="40" cy="40" r="20" fill="#4169E1"/>
  <text x="70" y="45" font-family="Arial" font-weight="bold" font-size="16" fill="white">BlinkMusic</text>
  
  <!-- Меню -->
  <rect x="15" y="90" width="170" height="40" rx="8" fill="rgba(30, 58, 138, 0.3)"/>
  <circle cx="35" cy="110" r="6" fill="white" opacity="0.6"/>
  <text x="50" y="115" font-family="Arial" font-size="14" fill="white" opacity="0.8">Главная</text>
  
  <rect x="15" y="140" width="170" height="40" rx="8" fill="rgba(65, 105, 225, 0.3)"/>
  <circle cx="35" cy="160" r="6" fill="#4169E1"/>
  <text x="50" y="165" font-family="Arial" font-size="14" fill="white">Альбомы</text>
  
  <circle cx="35" cy="210" r="6" fill="white" opacity="0.6"/>
  <text x="50" y="215" font-family="Arial" font-size="14" fill="white" opacity="0.8">Плейлисты</text>
  
  <circle cx="35" cy="260" r="6" fill="white" opacity="0.6"/>
  <text x="50" y="265" font-family="Arial" font-size="14" fill="white" opacity="0.8">Исполнители</text>
  
  <!-- Заголовок -->
  <text x="230" y="60" font-family="Arial" font-weight="bold" font-size="28" fill="white">Альбомы</text>
  
  <!-- Альбомы -->
  <g filter="url(#cardShadow)">
    <rect x="230" y="90" width="520" height="120" rx="12" fill="#121B2F"/>
    
    <!-- Обложка альбома -->
    <rect x="250" y="110" width="80" height="80" rx="8" fill="#2B3A57"/>
    <rect x="250" y="110" width="80" height="80" rx="8" fill="url(#albumGradient1)" opacity="0.7"/>
    
    <!-- Инфо об альбоме -->
    <text x="350" y="130" font-family="Arial" font-weight="bold" font-size="18" fill="white">Космические мечты</text>
    <text x="350" y="155" font-family="Arial" font-size="14" fill="#CCCCCC">Астральное эхо • 2023</text>
    
    <!-- Кнопка раскрытия -->
    <circle cx="720" cy="150" r="15" fill="rgba(255, 255, 255, 0.1)"/>
    <path d="M713 150L720 157L727 150" stroke="white" stroke-width="2" stroke-linecap="round" stroke-linejoin="round"/>
  </g>
  
  <g filter="url(#cardShadow)">
    <rect x="230" y="230" width="520" height="120" rx="12" fill="#121B2F"/>
    
    <!-- Обложка альбома -->
    <rect x="250" y="250" width="80" height="80" rx="8" fill="#2B3A57"/>
    <rect x="250" y="250" width="80" height="80" rx="8" fill="url(#albumGradient2)" opacity="0.7"/>
    
    <!-- Инфо об альбоме -->
    <text x="350" y="270" font-family="Arial" font-weight="bold" font-size="18" fill="white">Галактический полет</text>
    <text x="350" y="295" font-family="Arial" font-size="14" fill="#CCCCCC">Звездные волны • 2022</text>
    
    <!-- Кнопка раскрытия -->
    <circle cx="720" cy="290" r="15" fill="rgba(255, 255, 255, 0.1)"/>
    <path d="M713 290L720 297L727 290" stroke="white" stroke-width="2" stroke-linecap="round" stroke-linejoin="round"/>
  </g>
  
  <!-- Раскрытый альбом с треками -->
  <g filter="url(#cardShadow)">
    <rect x="230" y="370" width="520" height="200" rx="12" fill="#121B2F"/>
    
    <!-- Обложка альбома -->
    <rect x="250" y="390" width="80" height="80" rx="8" fill="#2B3A57"/>
    <rect x="250" y="390" width="80" height="80" rx="8" fill="url(#albumGradient3)" opacity="0.7"/>
    
    <!-- Инфо об альбоме -->
    <text x="350" y="410" font-family="Arial" font-weight="bold" font-size="18" fill="white">Межзвездное путешествие</text>
    <text x="350" y="435" font-family="Arial" font-size="14" fill="#CCCCCC">Космический коллектив • 2023</text>
    
    <!-- Кнопка раскрытия -->
    <circle cx="720" cy="430" r="15" fill="rgba(65, 105, 225, 0.3)"/>
    <path d="M713 430L720 423L727 430" stroke="white" stroke-width="2" stroke-linecap="round" stroke-linejoin="round"/>
    
    <!-- Треки -->
    <line x1="250" y1="490" x2="730" y2="490" stroke="rgba(255, 255, 255, 0.1)" stroke-width="1"/>
    
    <text x="270" y="515" font-family="Arial" font-size="14" fill="white">1. Утренняя звезда</text>
    <text x="670" y="515" font-family="Arial" font-size="12" fill="#AAAAAA">3:45</text>
    
    <line x1="250" y1="525" x2="730" y2="525" stroke="rgba(255, 255, 255, 0.1)" stroke-width="1"/>
    
    <text x="270" y="550" font-family="Arial" font-size="14" fill="white">2. Лунное притяжение</text>
    <text x="670" y="550" font-family="Arial" font-size="12" fill="#AAAAAA">4:12</text>
  </g>
  
  <!-- Определение градиентов и фильтров -->
  <defs>
    <radialGradient id="cosmicBack" cx="0.5" cy="0.5" r="0.5" gradientUnits="objectBoundingBox">
      <stop offset="0%" stop-color="#4169E1" stop-opacity="0.3"/>
      <stop offset="100%" stop-color="#121B2F" stop-opacity="0"/>
    </radialGradient>
    
    <radialGradient id="blueGlow" cx="0.5" cy="0.5" r="0.5" gradientUnits="objectBoundingBox">
      <stop offset="0%" stop-color="#6495ED" stop-opacity="0.4"/>
      <stop offset="100%" stop-color="#6495ED" stop-opacity="0"/>
    </radialGradient>
    
    <radialGradient id="purpleGlow" cx="0.5" cy="0.5" r="0.5" gradientUnits="objectBoundingBox">
      <stop offset="0%" stop-color="#8A2BE2" stop-opacity="0.3"/>
      <stop offset="100%" stop-color="#8A2BE2" stop-opacity="0"/>
    </radialGradient>
    
    <linearGradient id="albumGradient1" x1="0" y1="0" x2="1" y2="1" gradientUnits="objectBoundingBox">
      <stop offset="0%" stop-color="#6495ED"/>
      <stop offset="100%" stop-color="#4169E1"/>
    </linearGradient>
    
    <linearGradient id="albumGradient2" x1="0" y1="0" x2="1" y2="1" gradientUnits="objectBoundingBox">
      <stop offset="0%" stop-color="#9370DB"/>
      <stop offset="100%" stop-color="#8A2BE2"/>
    </linearGradient>
    
    <linearGradient id="albumGradient3" x1="0" y1="0" x2="1" y2="1" gradientUnits="objectBoundingBox">
      <stop offset="0%" stop-color="#00BFFF"/>
      <stop offset="100%" stop-color="#1E90FF"/>
    </linearGradient>
    
    <filter id="cardShadow" x="-4" y="-4" width="8" height="8" filterUnits="userSpaceOnUse" color-interpolation-filters="sRGB">
      <feFlood flood-opacity="0" result="BackgroundImageFix"/>
      <feColorMatrix in="SourceAlpha" type="matrix" values="0 0 0 0 0 0 0 0 0 0 0 0 0 0 0 0 0 0 127 0" result="hardAlpha"/>
      <feOffset dy="4"/>
      <feGaussianBlur stdDeviation="4"/>
      <feComposite in2="hardAlpha" operator="out"/>
      <feColorMatrix type="matrix" values="0 0 0 0 0 0 0 0 0 0 0 0 0 0 0 0 0 0 0.25 0"/>
      <feBlend mode="normal" in2="BackgroundImageFix" result="effect1_dropShadow"/>
      <feBlend mode="normal" in="SourceGraphic" in2="effect1_dropShadow" result="shape"/>
    </filter>
  </defs>
</svg> 