<?xml version="1.0" encoding="UTF-8"?>
<svg width="800" height="600" viewBox="0 0 800 600" fill="none" xmlns="http://www.w3.org/2000/svg">
  <!-- Фон приложения -->
  <rect width="800" height="600" rx="20" fill="#121B2F"/>
  
  <!-- Блики и градиенты для космического фона -->
  <circle cx="400" cy="300" r="280" fill="url(#glowRadial)" opacity="0.3"/>
  <circle cx="600" cy="150" r="80" fill="url(#blueGlow)" opacity="0.2"/>
  <circle cx="200" cy="450" r="100" fill="url(#purpleGlow)" opacity="0.15"/>
  
  <!-- Сайдбар -->
  <rect x="50" y="60" width="200" height="480" rx="15" fill="#0A0D20"/>
  
  <!-- Логотип -->
  <circle cx="90" cy="100" r="25" fill="#4169E1"/>
  <text x="130" y="108" font-family="Arial" font-weight="bold" font-size="20" fill="white">BlinkMusic</text>
  
  <!-- Меню -->
  <rect x="70" y="150" width="160" height="40" rx="8" fill="#1E3A8A" opacity="0.6"/>
  <circle cx="90" cy="170" r="8" fill="#4169E1"/>
  <text x="110" y="178" font-family="Arial" font-size="16" fill="white">Главная</text>
  
  <circle cx="90" cy="220" r="8" fill="white" opacity="0.6"/>
  <text x="110" y="228" font-family="Arial" font-size="16" fill="white" opacity="0.8">Поиск</text>
  
  <circle cx="90" cy="270" r="8" fill="white" opacity="0.6"/>
  <text x="110" y="278" font-family="Arial" font-size="16" fill="white" opacity="0.8">Библиотека</text>
  
  <circle cx="90" cy="320" r="8" fill="white" opacity="0.6"/>
  <text x="110" y="328" font-family="Arial" font-size="16" fill="white" opacity="0.8">Плейлисты</text>
  
  <!-- Контент -->
  <rect x="280" y="60" width="470" height="200" rx="15" fill="#1A2A42"/>
  
  <!-- Волновая визуализация -->
  <text x="300" y="100" font-family="Arial" font-weight="bold" font-size="24" fill="white">Моя волна</text>
  <circle cx="515" cy="160" r="50" fill="#0A0D20" stroke="#4169E1" stroke-width="2"/>
  <path d="M505 160L535 160" stroke="#FFFFFF" stroke-width="3" stroke-linecap="round"/>
  <path d="M520 145L520 175" stroke="#FFFFFF" stroke-width="3" stroke-linecap="round"/>
  
  <path d="M350 180 Q 380 150, 410 170 Q 440 190, 470 160 Q 500 130, 530 150 Q 560 170, 590 140 Q 620 110, 650 140" stroke="#4169E1" stroke-width="3" fill="none"/>
  <path d="M350 200 Q 380 220, 410 190 Q 440 160, 470 180 Q 500 200, 530 180 Q 560 160, 590 190 Q 620 220, 650 200" stroke="#6495ED" stroke-width="2" fill="none"/>
  
  <!-- Треки -->
  <rect x="280" y="280" width="220" height="260" rx="15" fill="#1A2A42"/>
  <text x="300" y="320" font-family="Arial" font-weight="bold" font-size="20" fill="white">Популярное</text>
  
  <!-- Трек 1 -->
  <rect x="300" y="340" width="180" height="60" rx="8" fill="#0A0D20"/>
  <rect x="300" y="340" width="60" height="60" rx="8" fill="#2B3A57"/>
  <text x="370" y="365" font-family="Arial" font-size="14" fill="white">Cosmic Drift</text>
  <text x="370" y="385" font-family="Arial" font-size="12" fill="#AAAAAA">Astral Echoes</text>
  
  <!-- Трек 2 -->
  <rect x="300" y="410" width="180" height="60" rx="8" fill="#0A0D20"/>
  <rect x="300" y="410" width="60" height="60" rx="8" fill="#2B3A57"/>
  <text x="370" y="435" font-family="Arial" font-size="14" fill="white">Lunar Waves</text>
  <text x="370" y="455" font-family="Arial" font-size="12" fill="#AAAAAA">Night Vision</text>
  
  <!-- Альбомы -->
  <rect x="520" y="280" width="230" height="260" rx="15" fill="#1A2A42"/>
  <text x="540" y="320" font-family="Arial" font-weight="bold" font-size="20" fill="white">Альбомы</text>
  
  <!-- Сетка альбомов -->
  <rect x="540" y="340" width="80" height="80" rx="8" fill="#2B3A57"/>
  <rect x="640" y="340" width="80" height="80" rx="8" fill="#2B3A57"/>
  <rect x="540" y="440" width="80" height="80" rx="8" fill="#2B3A57"/>
  <rect x="640" y="440" width="80" height="80" rx="8" fill="#2B3A57"/>
  
  <!-- Мини-плеер -->
  <rect x="280" y="560" width="470" height="80" rx="15" fill="#0A0D20"/>
  <rect x="300" y="580" width="40" height="40" rx="8" fill="#1A2A42"/>
  <text x="350" y="595" font-family="Arial" font-size="14" fill="white">Starlight</text>
  <text x="350" y="615" font-family="Arial" font-size="12" fill="#AAAAAA">Nebula Dreams</text>
  
  <circle cx="500" cy="600" r="15" fill="#4169E1"/>
  <path d="M495 595L495 605L505 600L495 595" fill="white"/>
  
  <line x1="580" y1="600" x2="680" y2="600" stroke="#333333" stroke-width="4" stroke-linecap="round"/>
  <line x1="580" y1="600" x2="630" y2="600" stroke="#4169E1" stroke-width="4" stroke-linecap="round"/>
  
  <!-- Определение градиентов -->
  <defs>
    <radialGradient id="glowRadial" cx="0.5" cy="0.5" r="0.5" gradientUnits="objectBoundingBox">
      <stop offset="0%" stop-color="#4169E1" stop-opacity="0.4"/>
      <stop offset="100%" stop-color="#121B2F" stop-opacity="0"/>
    </radialGradient>
    
    <radialGradient id="blueGlow" cx="0.5" cy="0.5" r="0.5" gradientUnits="objectBoundingBox">
      <stop offset="0%" stop-color="#6495ED" stop-opacity="0.5"/>
      <stop offset="100%" stop-color="#6495ED" stop-opacity="0"/>
    </radialGradient>
    
    <radialGradient id="purpleGlow" cx="0.5" cy="0.5" r="0.5" gradientUnits="objectBoundingBox">
      <stop offset="0%" stop-color="#8A2BE2" stop-opacity="0.3"/>
      <stop offset="100%" stop-color="#8A2BE2" stop-opacity="0"/>
    </radialGradient>
  </defs>
</svg> 