<?xml version="1.0" encoding="UTF-8"?>
<svg width="600" height="700" viewBox="0 0 600 700" fill="none" xmlns="http://www.w3.org/2000/svg">
  <!-- Фон страницы -->
  <rect width="600" height="700" rx="20" fill="#121B2F"/>
  
  <!-- Космический фон -->
  <circle cx="300" cy="350" r="300" fill="url(#cosmicGlow)" opacity="0.2"/>
  <circle cx="450" cy="200" r="100" fill="url(#blueStarGlow)" opacity="0.1"/>
  <circle cx="150" cy="500" r="80" fill="url(#purpleStarGlow)" opacity="0.15"/>
  
  <!-- Маленькие звезды на фоне -->
  <circle cx="100" cy="100" r="1" fill="white" opacity="0.8"/>
  <circle cx="150" cy="200" r="1" fill="white" opacity="0.8"/>
  <circle cx="450" cy="120" r="1" fill="white" opacity="0.8"/>
  <circle cx="500" cy="300" r="1" fill="white" opacity="0.8"/>
  <circle cx="320" cy="420" r="1" fill="white" opacity="0.8"/>
  <circle cx="400" cy="600" r="1" fill="white" opacity="0.8"/>
  <circle cx="200" cy="550" r="1" fill="white" opacity="0.8"/>
  <circle cx="550" cy="500" r="1" fill="white" opacity="0.8"/>
  
  <!-- Кнопка назад -->
  <circle cx="50" cy="50" r="25" fill="rgba(65, 105, 225, 0.2)"/>
  <path d="M55 40L45 50L55 60" stroke="white" stroke-width="2" stroke-linecap="round" stroke-linejoin="round"/>
  
  <!-- Информация о треке -->
  <g filter="url(#trackInfoShadow)">
    <rect x="50" y="100" width="500" height="200" rx="15" fill="#1A2A42"/>
  </g>
  
  <!-- Обложка трека -->
  <rect x="70" y="120" width="160" height="160" rx="10" fill="#2B3A57"/>
  <circle cx="150" cy="200" r="50" fill="#0A0D20" opacity="0.5"/>
  <path d="M150 160 Q 170 180, 150 200 Q 130 220, 150 240" stroke="#4169E1" stroke-width="2" fill="none"/>
  <path d="M130 180 Q 150 160, 170 180 Q 190 200, 170 220 Q 150 240, 130 220 Q 110 200, 130 180" stroke="#6495ED" stroke-width="1" fill="none"/>
  
  <!-- Название трека -->
  <text x="250" y="150" font-family="Arial" font-weight="bold" font-size="24" fill="white">Cosmic Whispers</text>
  <text x="250" y="180" font-family="Arial" font-size="16" fill="#CCCCCC">Astral Echoes</text>
  <text x="250" y="210" font-family="Arial" font-size="14" fill="#AAAAAA">Album: Nebula Dreams • 2023</text>
  
  <!-- Прогресс бар -->
  <rect x="50" y="330" width="500" height="4" rx="2" fill="#333333"/>
  <rect x="50" y="330" width="200" height="4" rx="2" fill="#4169E1"/>
  <text x="50" y="355" font-family="Arial" font-size="12" fill="#AAAAAA">1:45</text>
  <text x="525" y="355" font-family="Arial" font-size="12" fill="#AAAAAA">4:20</text>
  
  <!-- Тексты песни -->
  <rect x="100" y="400" width="400" height="50" rx="8" fill="#1A2A42" opacity="0.6"/>
  <text x="120" y="430" font-family="Arial" font-size="16" fill="#AAAAAA">Drifting through the cosmic haze</text>
  
  <rect x="100" y="460" width="400" height="50" rx="8" fill="#4169E1" opacity="0.2"/>
  <text x="120" y="490" font-family="Arial" font-weight="bold" font-size="16" fill="white">Stars whisper ancient melodies</text>
  <rect x="100" y="460" width="200" height="50" rx="8" fill="#4169E1" opacity="0.3"/>
  
  <rect x="100" y="520" width="400" height="50" rx="8" fill="#1A2A42" opacity="0.6"/>
  <text x="120" y="550" font-family="Arial" font-size="16" fill="#AAAAAA">Guiding souls through infinity</text>
  
  <!-- Аннотация -->
  <g filter="url(#annotationShadow)">
    <rect x="150" y="600" width="300" height="80" rx="10" fill="#2B3A57"/>
  </g>
  <text x="170" y="625" font-family="Arial" font-weight="bold" font-size="14" fill="white">О чем эта строка:</text>
  <text x="170" y="650" font-family="Arial" font-size="12" fill="#DDDDDD">Метафора о том, как звезды хранят древние знания и мелодии вселенной, передавая их через космос.</text>
  <circle cx="430" cy="625" r="12" fill="#4169E1"/>
  <text x="427" y="630" font-family="Arial" font-weight="bold" font-size="16" fill="white">?</text>
  
  <!-- Определение градиентов и фильтров -->
  <defs>
    <radialGradient id="cosmicGlow" cx="0.5" cy="0.5" r="0.5" gradientUnits="objectBoundingBox">
      <stop offset="0%" stop-color="#4169E1" stop-opacity="0.3"/>
      <stop offset="100%" stop-color="#121B2F" stop-opacity="0"/>
    </radialGradient>
    
    <radialGradient id="blueStarGlow" cx="0.5" cy="0.5" r="0.5" gradientUnits="objectBoundingBox">
      <stop offset="0%" stop-color="#6495ED" stop-opacity="0.4"/>
      <stop offset="100%" stop-color="#6495ED" stop-opacity="0"/>
    </radialGradient>
    
    <radialGradient id="purpleStarGlow" cx="0.5" cy="0.5" r="0.5" gradientUnits="objectBoundingBox">
      <stop offset="0%" stop-color="#8A2BE2" stop-opacity="0.3"/>
      <stop offset="100%" stop-color="#8A2BE2" stop-opacity="0"/>
    </radialGradient>
    
    <filter id="trackInfoShadow" x="40" y="95" width="520" height="220" filterUnits="userSpaceOnUse" color-interpolation-filters="sRGB">
      <feFlood flood-opacity="0" result="BackgroundImageFix"/>
      <feColorMatrix in="SourceAlpha" type="matrix" values="0 0 0 0 0 0 0 0 0 0 0 0 0 0 0 0 0 0 127 0" result="hardAlpha"/>
      <feOffset dy="5"/>
      <feGaussianBlur stdDeviation="5"/>
      <feComposite in2="hardAlpha" operator="out"/>
      <feColorMatrix type="matrix" values="0 0 0 0 0 0 0 0 0 0 0 0 0 0 0 0 0 0 0.3 0"/>
      <feBlend mode="normal" in2="BackgroundImageFix" result="effect1_dropShadow"/>
      <feBlend mode="normal" in="SourceGraphic" in2="effect1_dropShadow" result="shape"/>
    </filter>
    
    <filter id="annotationShadow" x="140" y="595" width="320" height="100" filterUnits="userSpaceOnUse" color-interpolation-filters="sRGB">
      <feFlood flood-opacity="0" result="BackgroundImageFix"/>
      <feColorMatrix in="SourceAlpha" type="matrix" values="0 0 0 0 0 0 0 0 0 0 0 0 0 0 0 0 0 0 127 0" result="hardAlpha"/>
      <feOffset dy="5"/>
      <feGaussianBlur stdDeviation="5"/>
      <feComposite in2="hardAlpha" operator="out"/>
      <feColorMatrix type="matrix" values="0 0 0 0 0 0 0 0 0 0 0 0 0 0 0 0 0 0 0.3 0"/>
      <feBlend mode="normal" in2="BackgroundImageFix" result="effect1_dropShadow"/>
      <feBlend mode="normal" in="SourceGraphic" in2="effect1_dropShadow" result="shape"/>
    </filter>
  </defs>
</svg> 