<?xml version="1.0" encoding="UTF-8"?>
<svg width="200" height="200" viewBox="0 0 200 200" fill="none" xmlns="http://www.w3.org/2000/svg">
  <!-- Фон -->
  <circle cx="100" cy="100" r="100" fill="url(#logoBackground)"/>
  
  <!-- Внешний круг -->
  <circle cx="100" cy="100" r="90" stroke="url(#outerGlow)" stroke-width="2" stroke-opacity="0.8" fill="none"/>
  
  <!-- Ноты и звуковые волны -->
  <path d="M100 30 Q 130 50, 100 70 Q 70 90, 100 110 Q 130 130, 100 150 Q 70 170, 100 190" 
    stroke="url(#waveGradient)" stroke-width="3" fill="none" opacity="0.8">
    <animate attributeName="d" 
      values="
      M100 30 Q 130 50, 100 70 Q 70 90, 100 110 Q 130 130, 100 150 Q 70 170, 100 190;
      M100 30 Q 140 45, 100 70 Q 60 95, 100 110 Q 140 125, 100 150 Q 60 175, 100 190;
      M100 30 Q 130 50, 100 70 Q 70 90, 100 110 Q 130 130, 100 150 Q 70 170, 100 190"
      dur="8s" repeatCount="indefinite" />
  </path>
  
  <path d="M70 40 Q 90 60, 70 80 Q 50 100, 70 120 Q 90 140, 70 160" 
    stroke="url(#waveGradient2)" stroke-width="2" fill="none" opacity="0.6">
    <animate attributeName="d" 
      values="
      M70 40 Q 90 60, 70 80 Q 50 100, 70 120 Q 90 140, 70 160;
      M70 40 Q 95 55, 70 80 Q 45 105, 70 120 Q 95 135, 70 160;
      M70 40 Q 90 60, 70 80 Q 50 100, 70 120 Q 90 140, 70 160"
      dur="7s" repeatCount="indefinite" />
  </path>
  
  <path d="M130 40 Q 150 60, 130 80 Q 110 100, 130 120 Q 150 140, 130 160" 
    stroke="url(#waveGradient3)" stroke-width="2" fill="none" opacity="0.6">
    <animate attributeName="d" 
      values="
      M130 40 Q 150 60, 130 80 Q 110 100, 130 120 Q 150 140, 130 160;
      M130 40 Q 155 55, 130 80 Q 105 105, 130 120 Q 155 135, 130 160;
      M130 40 Q 150 60, 130 80 Q 110 100, 130 120 Q 150 140, 130 160"
      dur="6s" repeatCount="indefinite" />
  </path>
  
  <!-- Музыкальная нота -->
  <g opacity="0.9">
    <ellipse cx="85" cy="75" rx="12" ry="8" fill="white" transform="rotate(-15 85 75)"/>
    <path d="M95 75 L95 125" stroke="white" stroke-width="2" stroke-linecap="round"/>
    <ellipse cx="95" cy="125" rx="10" ry="15" fill="url(#noteGlow)" transform="rotate(15 95 125)"/>
  </g>
  
  <!-- Центральное свечение -->
  <circle cx="100" cy="100" r="25" fill="url(#centerGlow)" opacity="0.7">
    <animate attributeName="r" values="25;30;25" dur="4s" repeatCount="indefinite" />
    <animate attributeName="opacity" values="0.7;0.9;0.7" dur="4s" repeatCount="indefinite" />
  </circle>
  
  <!-- Блики -->
  <circle cx="80" cy="65" r="5" fill="white" opacity="0.5"/>
  <circle cx="110" cy="140" r="3" fill="white" opacity="0.3"/>
  <circle cx="145" cy="85" r="2" fill="white" opacity="0.4"/>
  <circle cx="55" cy="120" r="2" fill="white" opacity="0.4"/>
  
  <!-- Определение градиентов -->
  <defs>
    <radialGradient id="logoBackground" cx="0.5" cy="0.5" r="0.5" gradientUnits="objectBoundingBox">
      <stop offset="0%" stop-color="#121B2F"/>
      <stop offset="100%" stop-color="#05071A"/>
    </radialGradient>
    
    <linearGradient id="outerGlow" x1="0" y1="0" x2="1" y2="1" gradientUnits="objectBoundingBox">
      <stop offset="0%" stop-color="#4169E1"/>
      <stop offset="50%" stop-color="#6495ED"/>
      <stop offset="100%" stop-color="#4169E1"/>
    </linearGradient>
    
    <linearGradient id="waveGradient" x1="0" y1="0" x2="0" y2="1" gradientUnits="objectBoundingBox">
      <stop offset="0%" stop-color="#4169E1"/>
      <stop offset="50%" stop-color="#00BFFF"/>
      <stop offset="100%" stop-color="#4169E1"/>
    </linearGradient>
    
    <linearGradient id="waveGradient2" x1="0" y1="0" x2="0" y2="1" gradientUnits="objectBoundingBox">
      <stop offset="0%" stop-color="#6495ED"/>
      <stop offset="100%" stop-color="#1E90FF"/>
    </linearGradient>
    
    <linearGradient id="waveGradient3" x1="0" y1="0" x2="0" y2="1" gradientUnits="objectBoundingBox">
      <stop offset="0%" stop-color="#1E90FF"/>
      <stop offset="100%" stop-color="#6495ED"/>
    </linearGradient>
    
    <radialGradient id="centerGlow" cx="0.5" cy="0.5" r="0.5" gradientUnits="objectBoundingBox">
      <stop offset="0%" stop-color="#00BFFF"/>
      <stop offset="100%" stop-color="#4169E1"/>
    </radialGradient>
    
    <radialGradient id="noteGlow" cx="0.5" cy="0.5" r="0.5" gradientUnits="objectBoundingBox">
      <stop offset="0%" stop-color="#FFFFFF"/>
      <stop offset="100%" stop-color="#4169E1"/>
    </radialGradient>
  </defs>
</svg>