<svg xmlns="http://www.w3.org/2000/svg" viewBox="0 0 200 200" width="200" height="200">
  <!-- Космический фон -->
  <defs>
    <radialGradient id="bg-gradient" cx="50%" cy="50%" r="70%" fx="30%" fy="30%">
      <stop offset="0%" stop-color="#121B2F" />
      <stop offset="100%" stop-color="#0C0F19" />
    </radialGradient>
    <radialGradient id="glow-gradient" cx="50%" cy="50%" r="70%" fx="40%" fy="40%">
      <stop offset="0%" stop-color="#4169E1" stop-opacity="0.7" />
      <stop offset="100%" stop-color="#4169E1" stop-opacity="0" />
    </radialGradient>
    <filter id="glow" x="-50%" y="-50%" width="200%" height="200%">
      <feGaussianBlur stdDeviation="5" result="blur" />
      <feComposite in="SourceGraphic" in2="blur" operator="over" />
    </filter>
  </defs>
  
  <!-- Фоновый круг -->
  <circle cx="100" cy="100" r="98" fill="url(#bg-gradient)" />
  <circle cx="100" cy="100" r="70" fill="url(#glow-gradient)" filter="url(#glow)" />
  
  <!-- Иконка музыки -->
  <g fill="#FFFFFF" filter="url(#glow)">
    <path d="M100 45 A10 10 0 0 1 110 55 V120 A20 20 0 1 1 90 100 A20 20 0 0 1 110 120 V75 A30 30 0 1 0 70 45 A10 10 0 0 1 100 45 Z" />
    <circle cx="130" cy="80" r="8" />
    <circle cx="70" cy="110" r="5" />
    <circle cx="140" cy="60" r="3" />
    <circle cx="60" cy="70" r="4" />
    <circle cx="110" cy="150" r="6" />
  </g>
  
  <!-- Кольцо -->
  <circle cx="100" cy="100" r="98" stroke="#4169E1" stroke-width="4" fill="none" stroke-opacity="0.7" />
  
  <!-- Блики -->
  <circle cx="70" cy="60" r="1.5" fill="#FFFFFF" />
  <circle cx="80" cy="70" r="1" fill="#FFFFFF" />
  <circle cx="130" cy="50" r="1.2" fill="#FFFFFF" />
  <circle cx="150" cy="120" r="1.8" fill="#FFFFFF" />
  <circle cx="60" cy="140" r="1.3" fill="#FFFFFF" />
  <circle cx="120" cy="160" r="1" fill="#FFFFFF" />
</svg>