<?xml version="1.0" encoding="UTF-8"?>
<svg width="800" height="600" viewBox="0 0 800 600" fill="none" xmlns="http://www.w3.org/2000/svg">
  <!-- Фон приложения -->
  <rect width="800" height="600" rx="20" fill="#0A0D20"/>
  
  <!-- Сайдбар -->
  <rect x="0" y="0" width="250" height="600" fill="#070A17"/>
  
  <!-- Логотип -->
  <circle cx="45" cy="45" r="25" fill="#4169E1"/>
  <path d="M35 45L55 35V55L35 45Z" fill="white"/>
  <text x="80" y="50" font-family="Arial" font-weight="bold" font-size="20" fill="white">BlinkMusic</text>
  
  <!-- Меню -->
  <rect x="20" y="100" width="210" height="45" rx="8" fill="#1E3A8A" opacity="0.6"/>
  <circle cx="45" cy="122" r="8" fill="#4169E1"/>
  <text x="65" y="128" font-family="Arial" font-size="16" fill="white">Главная</text>
  
  <circle cx="45" cy="172" r="8" fill="white" opacity="0.6"/>
  <text x="65" y="178" font-family="Arial" font-size="16" fill="white" opacity="0.8">Поиск</text>
  
  <circle cx="45" cy="222" r="8" fill="white" opacity="0.6"/>
  <text x="65" y="228" font-family="Arial" font-size="16" fill="white" opacity="0.8">Библиотека</text>
  
  <text x="30" y="280" font-family="Arial" font-weight="bold" font-size="14" fill="#AAAAAA">ПЛЕЙЛИСТЫ</text>
  
  <text x="45" y="320" font-family="Arial" font-size="14" fill="white" opacity="0.8">Моя волна</text>
  <text x="45" y="355" font-family="Arial" font-size="14" fill="white" opacity="0.8">Любимое</text>
  <text x="45" y="390" font-family="Arial" font-size="14" fill="white" opacity="0.8">Недавно прослушано</text>
  <text x="45" y="425" font-family="Arial" font-size="14" fill="white" opacity="0.8">Космические хиты</text>
  
  <!-- Основной контент -->
  <rect x="250" y="0" width="550" height="600" fill="#0A0D20"/>
  
  <!-- Фон с градиентами -->
  <circle cx="525" cy="150" r="200" fill="url(#cosmicGlow)" opacity="0.15"/>
  <circle cx="350" cy="450" r="150" fill="url(#blueGlow)" opacity="0.1"/>
  <circle cx="700" cy="300" r="100" fill="url(#purpleGlow)" opacity="0.15"/>
  
  <!-- Заголовок -->
  <text x="280" y="50" font-family="Arial" font-weight="bold" font-size="24" fill="white">Главная</text>
  
  <!-- Моя волна -->
  <rect x="280" y="80" width="490" height="150" rx="15" fill="#131C2E"/>
  <text x="300" y="110" font-family="Arial" font-weight="bold" font-size="18" fill="white">Моя волна</text>
  
  <!-- Волновые линии -->
  <path d="M300 140 Q 330 120, 360 140 Q 390 160, 420 140 Q 450 120, 480 140 Q 510 160, 540 140 Q 570 120, 600 140 Q 630 160, 660 140 Q 690 120, 720 140" stroke="#4169E1" stroke-width="2" fill="none"/>
  <path d="M300 160 Q 330 180, 360 160 Q 390 140, 420 160 Q 450 180, 480 160 Q 510 140, 540 160 Q 570 180, 600 160 Q 630 140, 660 160 Q 690 180, 720 160" stroke="#6495ED" stroke-width="1.5" fill="none"/>
  <path d="M300 180 Q 330 170, 360 180 Q 390 190, 420 180 Q 450 170, 480 180 Q 510 190, 540 180 Q 570 170, 600 180 Q 630 190, 660 180 Q 690 170, 720 180" stroke="#1E90FF" stroke-width="1" fill="none"/>
  
  <circle cx="525" cy="150" r="30" fill="#0A0D20" stroke="#4169E1" stroke-width="1.5"/>
  <path d="M515 150L535 150" stroke="#FFFFFF" stroke-width="2" stroke-linecap="round"/>
  <path d="M525 140L525 160" stroke="#FFFFFF" stroke-width="2" stroke-linecap="round"/>
  
  <!-- Недавно прослушано -->
  <text x="280" y="270" font-family="Arial" font-weight="bold" font-size="18" fill="white">Недавно прослушано</text>
  
  <!-- Карточки треков -->
  <g filter="url(#cardShadow)">
    <rect x="280" y="290" width="150" height="180" rx="10" fill="#1A2A42"/>
    <rect x="280" y="290" width="150" height="150" rx="10" fill="#2B3A57"/>
    <text x="290" y="465" font-family="Arial" font-weight="bold" font-size="14" fill="white">Cosmic Drift</text>
    <text x="290" y="485" font-family="Arial" font-size="12" fill="#AAAAAA">Astral Echoes</text>
  </g>
  
  <g filter="url(#cardShadow)">
    <rect x="450" y="290" width="150" height="180" rx="10" fill="#1A2A42"/>
    <rect x="450" y="290" width="150" height="150" rx="10" fill="#2B3A57"/>
    <text x="460" y="465" font-family="Arial" font-weight="bold" font-size="14" fill="white">Stellar Journey</text>
    <text x="460" y="485" font-family="Arial" font-size="12" fill="#AAAAAA">Luna Nova</text>
  </g>
  
  <g filter="url(#cardShadow)">
    <rect x="620" y="290" width="150" height="180" rx="10" fill="#1A2A42"/>
    <rect x="620" y="290" width="150" height="150" rx="10" fill="#2B3A57"/>
    <text x="630" y="465" font-family="Arial" font-weight="bold" font-size="14" fill="white">Nebula Dreams</text>
    <text x="630" y="485" font-family="Arial" font-size="12" fill="#AAAAAA">Cosmic Collective</text>
  </g>
  
  <!-- Мини-плеер -->
  <rect x="250" y="540" width="550" height="60" rx="0" fill="#070A17"/>
  <rect x="270" y="550" width="40" height="40" rx="5" fill="#1A2A42"/>
  <text x="320" y="565" font-family="Arial" font-size="12" font-weight="bold" fill="white">Cosmic Drift</text>
  <text x="320" y="580" font-family="Arial" font-size="10" fill="#AAAAAA">Astral Echoes</text>
  
  <circle cx="450" cy="570" r="15" fill="#4169E1"/>
  <path d="M445 565L445 575L455 570L445 565" fill="white"/>
  
  <rect x="500" y="568" width="200" height="4" rx="2" fill="#333333"/>
  <rect x="500" y="568" width="80" height="4" rx="2" fill="#4169E1"/>
  
  <text x="710" y="573" font-family="Arial" font-size="10" fill="#AAAAAA">2:45</text>
  
  <!-- Определение градиентов и фильтров -->
  <defs>
    <radialGradient id="cosmicGlow" cx="0.5" cy="0.5" r="0.5" gradientUnits="objectBoundingBox">
      <stop offset="0%" stop-color="#4169E1" stop-opacity="0.3"/>
      <stop offset="100%" stop-color="#121B2F" stop-opacity="0"/>
    </radialGradient>
    
    <radialGradient id="blueGlow" cx="0.5" cy="0.5" r="0.5" gradientUnits="objectBoundingBox">
      <stop offset="0%" stop-color="#6495ED" stop-opacity="0.4"/>
      <stop offset="100%" stop-color="#6495ED" stop-opacity="0"/>
    </radialGradient>
    
    <radialGradient id="purpleGlow" cx="0.5" cy="0.5" r="0.5" gradientUnits="objectBoundingBox">
      <stop offset="0%" stop-color="#8A2BE2" stop-opacity="0.3"/>
      <stop offset="100%" stop-color="#8A2BE2" stop-opacity="0"/>
    </radialGradient>
    
    <filter id="cardShadow" filterUnits="userSpaceOnUse" color-interpolation-filters="sRGB">
      <feFlood flood-opacity="0" result="BackgroundImageFix"/>
      <feColorMatrix in="SourceAlpha" type="matrix" values="0 0 0 0 0 0 0 0 0 0 0 0 0 0 0 0 0 0 127 0" result="hardAlpha"/>
      <feOffset dy="4"/>
      <feGaussianBlur stdDeviation="4"/>
      <feComposite in2="hardAlpha" operator="out"/>
      <feColorMatrix type="matrix" values="0 0 0 0 0 0 0 0 0 0 0 0 0 0 0 0 0 0 0.25 0"/>
      <feBlend mode="normal" in2="BackgroundImageFix" result="effect1_dropShadow"/>
      <feBlend mode="normal" in="SourceGraphic" in2="effect1_dropShadow" result="shape"/>
    </filter>
  </defs>
</svg> 